<svg width="20" height="20" viewBox="0 0 20 20" fill="none" xmlns="http://www.w3.org/2000/svg">
<path fill-rule="evenodd" clip-rule="evenodd" d="M6.46493 1.6665H13.5338C14.2046 1.66649 14.7582 1.66649 15.2092 1.70333C15.6776 1.7416 16.1082 1.82374 16.5127 2.02982C17.1399 2.34939 17.6498 2.85933 17.9694 3.48654C18.1754 3.89098 18.2576 4.32157 18.2959 4.78998C18.3327 5.24098 18.3327 5.7946 18.3327 6.4654V13.5343C18.3327 14.2051 18.3327 14.7587 18.2959 15.2097C18.2576 15.6781 18.1754 16.1087 17.9694 16.5131C17.6498 17.1403 17.1399 17.6503 16.5127 17.9699C16.1082 18.1759 15.6776 18.2581 15.2092 18.2963C14.7582 18.3332 14.2046 18.3332 13.5338 18.3332H6.46491C5.79411 18.3332 5.24049 18.3332 4.7895 18.2963C4.32108 18.2581 3.89049 18.1759 3.48605 17.9699C2.85884 17.6503 2.34891 17.1403 2.02933 16.5131C1.82325 16.1087 1.74112 15.6781 1.70284 15.2097C1.666 14.7587 1.66601 14.2051 1.66602 13.5343V6.46541C1.66601 5.79461 1.666 5.24097 1.70284 4.78998C1.74112 4.32157 1.82325 3.89098 2.02933 3.48654C2.34891 2.85933 2.85884 2.34939 3.48605 2.02982C3.8905 1.82374 4.32108 1.7416 4.7895 1.70333C5.24049 1.66649 5.79414 1.66649 6.46493 1.6665ZM6.00527 15.1724L15.1719 6.00576C15.4974 5.68032 15.4974 5.15269 15.1719 4.82725C14.8465 4.50181 14.3189 4.50181 13.9934 4.82725L4.82676 13.9939C4.50132 14.3194 4.50132 14.847 4.82676 15.1724C5.1522 15.4979 5.67983 15.4979 6.00527 15.1724ZM7.91602 5.4165C7.91602 4.95627 7.54292 4.58317 7.08268 4.58317C6.62245 4.58317 6.24935 4.95627 6.24935 5.4165V6.24984H5.41602C4.95578 6.24984 4.58268 6.62293 4.58268 7.08317C4.58268 7.54341 4.95578 7.9165 5.41602 7.9165H6.24935V8.74984C6.24935 9.21007 6.62245 9.58317 7.08268 9.58317C7.54292 9.58317 7.91602 9.21007 7.91602 8.74984V7.9165H8.74935C9.20959 7.9165 9.58268 7.54341 9.58268 7.08317C9.58268 6.62293 9.20959 6.24984 8.74935 6.24984H7.91602V5.4165ZM10.416 12.9165C10.416 12.4563 10.7891 12.0832 11.2493 12.0832H14.5827C15.0429 12.0832 15.416 12.4563 15.416 12.9165C15.416 13.3767 15.0429 13.7498 14.5827 13.7498H11.2493C10.7891 13.7498 10.416 13.3767 10.416 12.9165Z" fill="#6D51ED"/>
</svg>
