<svg width="24" height="24" viewBox="0 0 24 24" fill="none" xmlns="http://www.w3.org/2000/svg">
<path fill-rule="evenodd" clip-rule="evenodd" d="M9.92586 4.22845C10.5491 4.20513 11.1475 4.47386 11.5441 4.95516C11.8632 5.3424 11.9368 5.81953 11.9681 6.16764C12.0007 6.53005 12.0007 6.9917 12.0007 7.51807V16.4823C12.0007 17.0087 12.0007 17.4704 11.9681 17.8328C11.9368 18.1809 11.8632 18.658 11.5441 19.0453C11.1475 19.5266 10.5491 19.7953 9.92586 19.772C9.42444 19.7532 9.01896 19.4912 8.73797 19.2833C8.44543 19.0669 8.1004 18.7602 7.70699 18.4105L2.65599 13.9207C2.44554 13.7337 2.24321 13.5539 2.08633 13.3885C1.91604 13.209 1.72872 12.9758 1.6188 12.6628C1.46821 12.2339 1.46821 11.7665 1.6188 11.3376C1.72872 11.0246 1.91604 10.7915 2.08633 10.6119C2.24321 10.4466 2.44553 10.2668 2.65597 10.0798C2.66451 10.0722 2.67307 10.0646 2.68163 10.0569L7.70701 5.58994C8.10041 5.24022 8.44544 4.9335 8.73797 4.7171C9.01896 4.50923 9.42444 4.24722 9.92586 4.22845Z" fill="black"/>
<path fill-rule="evenodd" clip-rule="evenodd" d="M20.9259 4.22845C21.5491 4.20513 22.1475 4.47386 22.5441 4.95516C22.8632 5.3424 22.9368 5.81953 22.9681 6.16764C23.0007 6.53005 23.0007 6.9917 23.0007 7.51807V16.4823C23.0007 17.0087 23.0007 17.4704 22.9681 17.8328C22.9368 18.1809 22.8632 18.658 22.5441 19.0453C22.1475 19.5266 21.5491 19.7953 20.9259 19.772C20.4244 19.7532 20.019 19.4912 19.738 19.2833C19.4454 19.0669 19.1004 18.7602 18.707 18.4105L13.656 13.9207C13.4455 13.7337 13.2432 13.5539 13.0863 13.3885C12.916 13.209 12.7287 12.9758 12.6188 12.6628C12.4682 12.2339 12.4682 11.7665 12.6188 11.3376C12.7287 11.0246 12.916 10.7915 13.0863 10.6119C13.2432 10.4466 13.4455 10.2668 13.656 10.0798C13.6645 10.0722 13.6731 10.0646 13.6816 10.0569L18.707 5.58994C19.1004 5.24022 19.4454 4.9335 19.738 4.7171C20.019 4.50923 20.4244 4.24722 20.9259 4.22845Z" fill="black"/>
</svg>
