<svg width="24" height="24" viewBox="0 0 24 24" fill="none" xmlns="http://www.w3.org/2000/svg">
<path fill-rule="evenodd" clip-rule="evenodd" d="M12.5228 1.33611C12.1805 1.24343 11.8197 1.24343 11.4774 1.33611C11.0801 1.4437 10.7455 1.70635 10.4785 1.91598L10.4039 1.9744L3.54388 7.30988C3.16725 7.60216 2.83544 7.85966 2.58818 8.19396C2.37119 8.48735 2.20954 8.81785 2.11118 9.16926C1.9991 9.56967 1.99955 9.98968 2.00007 10.4664L2.00014 17.8383C2.00012 18.3654 2.00011 18.8202 2.03071 19.1948C2.06301 19.5901 2.13433 19.9833 2.32712 20.3617C2.61474 20.9262 3.07368 21.3851 3.63817 21.6728C4.01655 21.8656 4.40977 21.9369 4.80511 21.9692C5.17968 21.9998 5.63443 21.9998 6.16157 21.9997H17.8387C18.3658 21.9998 18.8206 21.9998 19.1952 21.9692C19.5905 21.9369 19.9837 21.8656 20.3621 21.6728C20.9266 21.3851 21.3855 20.9262 21.6732 20.3617C21.866 19.9833 21.9373 19.5901 21.9696 19.1948C22.0002 18.8202 22.0002 18.3654 22.0001 17.8383L22.0002 10.4664C22.0007 9.98969 22.0012 9.56967 21.8891 9.16926C21.7907 8.81785 21.6291 8.48735 21.4121 8.19396C21.1648 7.85966 20.833 7.60216 20.4564 7.30987L13.5964 1.9744L13.5218 1.91599C13.2547 1.70636 12.9202 1.4437 12.5228 1.33611ZM9.09459 13.7505C8.95693 13.2156 8.41175 12.8937 7.8769 13.0313C7.34205 13.169 7.02006 13.7142 7.15772 14.249C7.71272 16.4053 9.66897 17.9998 12.0001 17.9998C14.3313 17.9998 16.2876 16.4053 16.8426 14.249C16.9802 13.7142 16.6582 13.169 16.1234 13.0313C15.5885 12.8937 15.0433 13.2156 14.9057 13.7505C14.5726 15.0446 13.3966 15.9998 12.0001 15.9998C10.6036 15.9998 9.42768 15.0446 9.09459 13.7505Z" fill="black"/>
</svg>
