<svg width="20" height="20" viewBox="0 0 20 20" fill="none" xmlns="http://www.w3.org/2000/svg">
<path fill-rule="evenodd" clip-rule="evenodd" d="M13.5338 1.6665H6.46501C5.79421 1.66649 5.24057 1.66649 4.78957 1.70333C4.32116 1.7416 3.89057 1.82374 3.48613 2.02982C2.85892 2.34939 2.34899 2.85933 2.02941 3.48654C1.82333 3.89098 1.7412 4.32157 1.70292 4.78998C1.66608 5.24098 1.66608 5.79461 1.6661 6.46542L1.66605 11.7812C1.6657 12.444 1.66543 12.9362 1.77968 13.3626C2.0879 14.5129 2.98639 15.4114 4.1367 15.7196C4.39292 15.7882 4.67292 15.8155 4.99943 15.8263L4.99943 16.9756C4.99939 17.1717 4.99935 17.3715 5.01422 17.5353C5.02845 17.6919 5.06612 17.9875 5.2725 18.2461C5.50999 18.5436 5.8701 18.7167 6.25078 18.7162C6.5816 18.7159 6.83596 18.5606 6.96716 18.4739C7.10432 18.3832 7.26035 18.2583 7.41341 18.1358L9.42435 16.5271C9.85651 16.1814 9.98481 16.0838 10.1181 16.0156C10.2519 15.9473 10.3942 15.8974 10.5413 15.8672C10.688 15.8371 10.8491 15.8332 11.4026 15.8332H13.5339C14.2047 15.8332 14.7583 15.8332 15.2093 15.7963C15.6777 15.7581 16.1083 15.6759 16.5127 15.4699C17.1399 15.1503 17.6499 14.6403 17.9695 14.0131C18.1755 13.6087 18.2577 13.1781 18.2959 12.7097C18.3328 12.2587 18.3328 11.7051 18.3328 11.0343V6.4654C18.3328 5.7946 18.3328 5.24097 18.2959 4.78998C18.2577 4.32157 18.1755 3.89098 17.9695 3.48654C17.6499 2.85933 17.1399 2.34939 16.5127 2.02982C16.1083 1.82374 15.6777 1.7416 15.2093 1.70333C14.7583 1.66649 14.2046 1.66649 13.5338 1.6665ZM11.2432 6.24984C11.2432 5.55948 11.8029 4.99984 12.4932 4.99984C13.1836 4.99984 13.7432 5.55948 13.7432 6.24984C13.7432 6.94019 13.1836 7.49984 12.4932 7.49984C11.8029 7.49984 11.2432 6.94019 11.2432 6.24984ZM6.15992 9.74989C6.52695 9.47461 7.04715 9.5479 7.32397 9.91308C7.37534 9.97863 7.43187 10.0403 7.48944 10.1004C7.61219 10.2285 7.79664 10.4022 8.03548 10.5759C8.51636 10.9257 9.18119 11.2499 9.99325 11.2499C10.8053 11.2499 11.4701 10.9257 11.951 10.5759C12.1899 10.4022 12.3743 10.2285 12.4971 10.1004C12.5546 10.0403 12.6112 9.97862 12.6625 9.91308C12.9394 9.5479 13.4596 9.47461 13.8266 9.74989C14.1948 10.026 14.2694 10.5484 13.9933 10.9166C13.9954 10.9138 13.9904 10.9201 13.9819 10.9308C13.9616 10.9563 13.921 11.0074 13.9071 11.0239C13.8582 11.0821 13.7891 11.161 13.7004 11.2536C13.5236 11.438 13.2654 11.6809 12.9313 11.9238C12.2664 12.4074 11.2645 12.9166 9.99325 12.9166C8.72198 12.9166 7.72014 12.4074 7.05519 11.9238C6.72111 11.6809 6.46286 11.438 6.28613 11.2536C6.19742 11.161 6.12826 11.0821 6.07939 11.0239C6.05492 10.9947 6.03546 10.9707 6.02109 10.9525C5.73323 10.5806 5.77193 10.0409 6.15992 9.74989ZM7.49325 4.99984C6.80289 4.99984 6.24325 5.55948 6.24325 6.24984C6.24325 6.94019 6.80289 7.49984 7.49325 7.49984C8.1836 7.49984 8.74325 6.94019 8.74325 6.24984C8.74325 5.55948 8.1836 4.99984 7.49325 4.99984Z" fill="#00AB75"/>
</svg>
