<svg width="28" height="28" viewBox="0 0 28 28" fill="none" xmlns="http://www.w3.org/2000/svg">
<path fill-rule="evenodd" clip-rule="evenodd" d="M13.9993 1.1665C6.9117 1.1665 1.16602 6.91218 1.16602 13.9998C1.16602 21.0875 6.9117 26.8332 13.9993 26.8332C21.087 26.8332 26.8327 21.0875 26.8327 13.9998C26.8327 6.91218 21.087 1.1665 13.9993 1.1665ZM13.9993 8.1665C14.6437 8.1665 15.166 8.68884 15.166 9.33317V12.8332H18.666C19.3104 12.8332 19.8327 13.3555 19.8327 13.9998C19.8327 14.6442 19.3104 15.1665 18.666 15.1665H15.166V18.6665C15.166 19.3108 14.6437 19.8332 13.9993 19.8332C13.355 19.8332 12.8327 19.3108 12.8327 18.6665V15.1665H9.33268C8.68835 15.1665 8.16602 14.6442 8.16602 13.9998C8.16602 13.3555 8.68835 12.8332 9.33268 12.8332H12.8327V9.33317C12.8327 8.68884 13.355 8.1665 13.9993 8.1665Z" fill="#00AB75"/>
</svg>
