<svg width="24" height="24" viewBox="0 0 24 24" fill="none" xmlns="http://www.w3.org/2000/svg">
<path fill-rule="evenodd" clip-rule="evenodd" d="M7.09848 5.00942C7.55811 2.72249 9.57808 1 12.0004 1C14.4227 1 16.4426 2.72249 16.9023 5.00942C17.1246 5.01516 17.3302 5.02441 17.5201 5.03929C18.0427 5.08026 18.5239 5.16814 18.9838 5.38646C19.7008 5.72681 20.3003 6.27278 20.7061 6.95489C20.9664 7.39242 21.0988 7.86331 21.1884 8.37979C21.2744 8.8754 21.3314 9.48449 21.4004 10.2197L22.0081 16.7019C22.0899 17.575 22.1572 18.2926 22.1625 18.8779C22.168 19.4835 22.1105 20.0451 21.8811 20.579C21.5274 21.4022 20.9077 22.0828 20.1212 22.5117C19.611 22.7899 19.0572 22.8996 18.4537 22.9507C17.8705 23 17.1497 23 16.2728 23H7.72799C6.85109 23 6.13024 23 5.547 22.9507C4.94359 22.8996 4.38977 22.7899 3.8796 22.5117C3.09306 22.0828 2.4733 21.4022 2.11964 20.579C1.89024 20.0451 1.83277 19.4835 1.83824 18.8779C1.84353 18.2926 1.91082 17.575 1.99269 16.7019L2.60039 10.2197C2.66931 9.48449 2.7264 8.8754 2.81234 8.37979C2.90191 7.86331 3.03433 7.39242 3.29462 6.95488C3.70042 6.27278 4.29996 5.72681 5.01696 5.38646C5.47688 5.16814 5.95808 5.08026 6.48067 5.03929C6.6705 5.02441 6.87614 5.01516 7.09848 5.00942ZM9.17107 5C9.58291 3.83481 10.6941 3 12.0004 3C13.3066 3 14.4178 3.83481 14.8297 5L9.17107 5Z" fill="#00AB75"/>
</svg>
