<svg width="29" height="28" viewBox="0 0 29 28" fill="none" xmlns="http://www.w3.org/2000/svg">
    <path fill-rule="evenodd" clip-rule="evenodd"
          d="M8.78091 5.84434C9.31714 3.17625 11.6738 1.16669 14.4998 1.16669C17.3258 1.16669 19.6824 3.17626 20.2186 5.84434C20.478 5.85104 20.718 5.86183 20.9394 5.87919C21.5491 5.92699 22.1105 6.02952 22.6471 6.28422C23.4836 6.6813 24.1831 7.31826 24.6565 8.11405C24.9602 8.62451 25.1147 9.17388 25.2192 9.77645C25.3194 10.3547 25.386 11.0653 25.4664 11.9231L26.1754 19.4856C26.2709 20.5042 26.3494 21.3414 26.3556 22.0243C26.362 22.7308 26.2949 23.386 26.0273 24.0089C25.6147 24.9692 24.8916 25.7632 23.974 26.2637C23.3788 26.5883 22.7327 26.7162 22.0287 26.7758C21.3483 26.8334 20.5073 26.8334 19.4843 26.8334H9.51534C8.49229 26.8334 7.6513 26.8334 6.97086 26.7758C6.26687 26.7162 5.62074 26.5883 5.02555 26.2637C4.10792 25.7632 3.38487 24.9692 2.97226 24.0089C2.70463 23.386 2.63757 22.7308 2.64396 22.0243C2.65013 21.3414 2.72864 20.5041 2.82415 19.4855L3.53314 11.923C3.61354 11.0653 3.68015 10.3547 3.78042 9.77645C3.88491 9.17388 4.03939 8.62451 4.34307 8.11405C4.8165 7.31826 5.51597 6.6813 6.35247 6.28422C6.88905 6.02952 7.45044 5.92699 8.06013 5.87919C8.2816 5.86183 8.52152 5.85104 8.78091 5.84434ZM11.1989 5.83335C11.6794 4.47396 12.9759 3.50002 14.4998 3.50002C16.0237 3.50002 17.3201 4.47396 17.8006 5.83336L11.1989 5.83335Z"
          fill="white"/>
</svg>
