<svg width="20" height="20" viewBox="0 0 20 20" fill="none" xmlns="http://www.w3.org/2000/svg">
<path d="M6.66602 2.49984C6.66602 2.0396 7.03911 1.6665 7.49935 1.6665H12.4993C12.9596 1.6665 13.3327 2.0396 13.3327 2.49984C13.3327 2.96007 12.9596 3.33317 12.4993 3.33317H7.49935C7.03911 3.33317 6.66602 2.96007 6.66602 2.49984Z" fill="#DC2626"/>
<path fill-rule="evenodd" clip-rule="evenodd" d="M1.66602 4.99984C1.66602 4.5396 2.03911 4.1665 2.49935 4.1665H17.4993C17.9596 4.1665 18.3327 4.5396 18.3327 4.99984C18.3327 5.46007 17.9596 5.83317 17.4993 5.83317H16.6123L16.0776 13.8544C16.0356 14.4839 16.0009 15.0049 15.9386 15.4289C15.8738 15.8704 15.771 16.2739 15.5568 16.6499C15.2233 17.2352 14.7204 17.7057 14.1142 17.9995C13.7248 18.1882 13.3154 18.264 12.8705 18.2993C12.4433 18.3332 11.9212 18.3332 11.2903 18.3332H8.70849C8.07756 18.3332 7.55544 18.3332 7.1282 18.2993C6.68337 18.264 6.27398 18.1882 5.88457 17.9995C5.27837 17.7057 4.7754 17.2352 4.44195 16.6499C4.22775 16.2739 4.12492 15.8704 4.0601 15.4289C3.99784 15.0049 3.96312 14.4839 3.92116 13.8544L3.38641 5.83317H2.49935C2.03911 5.83317 1.66602 5.46007 1.66602 4.99984ZM8.33268 7.9165C8.79292 7.9165 9.16602 8.2896 9.16602 8.74984V12.9165C9.16602 13.3767 8.79292 13.7498 8.33268 13.7498C7.87245 13.7498 7.49935 13.3767 7.49935 12.9165V8.74984C7.49935 8.2896 7.87245 7.9165 8.33268 7.9165ZM12.4993 8.74984C12.4993 8.2896 12.1263 7.9165 11.666 7.9165C11.2058 7.9165 10.8327 8.2896 10.8327 8.74984V12.9165C10.8327 13.3767 11.2058 13.7498 11.666 13.7498C12.1263 13.7498 12.4993 13.3767 12.4993 12.9165V8.74984Z" fill="#DC2626"/>
</svg>
