<svg width="40" height="40" viewBox="0 0 40 40" fill="none" xmlns="http://www.w3.org/2000/svg">
    <path d="M0 20C0 8.95431 8.95431 0 20 0C31.0457 0 40 8.95431 40 20C40 31.0457 31.0457 40 20 40C8.95431 40 0 31.0457 0 20Z"
          fill="#E7E7EB"/>
    <path d="M28 23C28 22.4477 27.5523 22 27 22C26.4477 22 26 22.4477 26 23V25H24C23.4477 25 23 25.4477 23 26C23 26.5523 23.4477 27 24 27H26V29C26 29.5523 26.4477 30 27 30C27.5523 30 28 29.5523 28 29V27H30C30.5523 27 31 26.5523 31 26C31 25.4477 30.5523 25 30 25H28V23Z"
          fill="black"/>
    <path d="M13.1615 12L26.8385 12C27.3657 12 27.8205 12 28.195 12.0306C28.5904 12.0629 28.9836 12.1342 29.362 12.327C29.9265 12.6146 30.3854 13.0735 30.673 13.638C30.8658 14.0164 30.9371 14.4096 30.9694 14.805C31 15.1795 31 15.6343 31 16.1614C31 16.6246 30.6246 17 30.1614 17H9.83859C9.37545 17 9 16.6246 9 16.1614C8.99999 15.6343 8.99997 15.1795 9.03057 14.805C9.06287 14.4096 9.13419 14.0164 9.32698 13.638C9.6146 13.0735 10.0735 12.6146 10.638 12.327C11.0164 12.1342 11.4096 12.0629 11.805 12.0306C12.1795 12 12.6344 12 13.1615 12Z"
          fill="black"/>
    <path d="M10.6 19C10.0399 19 9.75992 19 9.54601 19.109C9.35785 19.2049 9.20487 19.3578 9.10899 19.546C9 19.7599 9 20.0399 9 20.6V23.8385C8.99999 24.3656 8.99997 24.8205 9.03057 25.195C9.06287 25.5904 9.13419 25.9836 9.32698 26.362C9.6146 26.9265 10.0735 27.3854 10.638 27.673C11.0164 27.8658 11.4096 27.9371 11.805 27.9694C12.1795 28 12.6342 28 13.1612 28L19.9742 28C20.5239 28 20.7987 28 20.9126 27.9362C21.0488 27.8598 21.0749 27.83 21.1327 27.6849C21.1809 27.5636 21.1294 27.1753 21.0263 26.3987C21.0089 26.2682 21 26.1352 21 26C21 24.3431 22.3431 23 24 23C24 21.3431 25.3431 20 27 20C28.6569 20 30 21.3431 30 23C30.3917 23 30.5876 23 30.67 22.9702C30.8413 22.9083 30.9083 22.8413 30.9702 22.67C31 22.5876 31 22.4422 31 22.1513V20.6C31 20.04 31 19.7599 30.891 19.546C30.7951 19.3578 30.6422 19.2049 30.454 19.109C30.2401 19 29.9601 19 29.4 19H10.6Z"
          fill="black"/>
</svg>
