<svg width="31" height="31" viewBox="0 0 31 31" fill="none" xmlns="http://www.w3.org/2000/svg">
    <mask id="mask0_4641_61474" style="mask-type:alpha" maskUnits="userSpaceOnUse" x="0" y="0" width="31" height="31">
        <path fill-rule="evenodd" clip-rule="evenodd"
              d="M7.61496 28.3135L8.15904 28.6362C10.4464 29.9929 13.0682 30.7107 15.7415 30.7118H15.7475C23.9587 30.7118 30.6417 24.0319 30.645 15.8215C30.6465 11.8429 29.0984 8.10177 26.2857 5.2873C23.473 2.47265 19.7326 0.921703 15.7535 0.92041C7.53597 0.92041 0.852887 7.59958 0.849611 15.8094C0.84849 18.623 1.63607 21.3631 3.12735 23.7337L3.48156 24.2972L1.97658 29.7918L7.61496 28.3135ZM24.7774 20.0827C24.6655 19.8958 24.367 19.7839 23.9191 19.5598C23.4712 19.3357 21.2694 18.2528 20.8589 18.1033C20.4484 17.9541 20.1497 17.8795 19.8512 18.3274C19.5527 18.7755 18.6944 19.7839 18.4331 20.0827C18.1719 20.3814 17.9106 20.4188 17.4629 20.1947C17.015 19.9707 15.5719 19.4979 13.8613 17.9729C12.5299 16.7859 11.6311 15.3201 11.3698 14.872C11.1087 14.4239 11.342 14.1815 11.5662 13.9584C11.7677 13.7578 12.0141 13.4355 12.238 13.1741C12.462 12.9128 12.5365 12.726 12.6859 12.4274C12.8351 12.1286 12.7605 11.8673 12.6486 11.6432C12.5365 11.419 11.6409 9.21568 11.2677 8.31938C10.9041 7.4466 10.5349 7.56476 10.26 7.55097C9.9991 7.53805 9.70024 7.5352 9.40173 7.5352C9.10313 7.5352 8.61793 7.64715 8.20741 8.09539C7.79689 8.54345 6.63992 9.62652 6.63992 11.8297C6.63992 14.0331 8.24475 16.1615 8.46868 16.4603C8.69261 16.7592 11.6267 21.2803 16.1193 23.2194C17.1878 23.6807 18.022 23.956 18.6724 24.1624C19.7454 24.503 20.7216 24.455 21.4933 24.3397C22.3538 24.2112 24.143 23.2568 24.5162 22.2114C24.8894 21.1655 24.8894 20.2693 24.7774 20.0827Z"
              fill="black"/>
    </mask>
    <g mask="url(#mask0_4641_61474)">
        <path d="M40.3599 -9H-10V41.36H40.3599V-9Z" fill="url(#paint0_linear_4641_61474)"/>
    </g>
    <defs>
        <linearGradient id="paint0_linear_4641_61474" x1="15.18" y1="41.36" x2="15.18" y2="-9"
                        gradientUnits="userSpaceOnUse">
            <stop stop-color="#25CF43"/>
            <stop offset="1" stop-color="#61FD7D"/>
        </linearGradient>
    </defs>
</svg>
